<?xml version="1.0" encoding="utf-8"?>
<!-- Generator: Adobe Illustrator 21.1.0, SVG Export Plug-In . SVG Version: 6.00 Build 0)  -->
<svg version="1.1" id="Layer_1" xmlns="http://www.w3.org/2000/svg" xmlns:xlink="http://www.w3.org/1999/xlink" x="0px" y="0px"
	 viewBox="0 0 128 128" style="enable-background:new 0 0 128 128;" xml:space="preserve">
<style type="text/css">
	.st0{fill:#FFFFFF;}
	.st1{fill:none;stroke:#FFFFFF;stroke-linecap:round;stroke-miterlimit:10;}
	.st2{fill:none;stroke:#231F20;stroke-linecap:round;stroke-miterlimit:10;}
</style>
<g>
	<g id="XMLID_1_">
		<g>
			<path class="st0" d="M89.1,54.9L89,54.5l-4.2-18.3l-0.1,0c-0.3-11.1-10-19.9-21.8-19.9c-11.3,0-20.6,8.1-21.7,18.5l-3.4,21.6
				l-0.3,0.1l0.2,0.2l6.7,7.4l2.3,2.4l1.8,2l0,0l1.5,1.7c2.7,3.1,1.2,7.9-2.8,8.8l-28.8,6.7c8,16.9,25.1,28.5,45,28.5
				c19.8,0,36.9-11.6,44.9-28.3L76.8,79c-4.1-0.9-5.6-5.9-2.7-8.9l8.3-8.7l0.1,0.1l0.2-0.2L89.1,54.9z M127.5,64.5
				c0,5.7-0.7,11.2-2.2,16.4c-0.6,2.3-1.3,4.6-2.2,6.8c-9.3,23.7-32.3,40.5-59.3,40.5c-26.6,0-49.3-16.2-58.9-39.3
				c-2.1-5.2-3.6-10.6-4.3-16.2c-0.3-2.7-0.5-5.4-0.5-8.2c0-35.2,28.5-63.7,63.7-63.7S127.5,29.3,127.5,64.5z"/>
		</g>
		<g>
			<path class="st1" d="M0.6,72.7c-0.3-2.7-0.5-5.4-0.5-8.2c0-35.2,28.5-63.7,63.7-63.7s63.7,28.5,63.7,63.7
				c0,5.7-0.7,11.2-2.2,16.4c-0.6,2.3-1.3,4.6-2.2,6.8c-9.3,23.7-32.3,40.5-59.3,40.5c-26.6,0-49.3-16.2-58.9-39.3
				C2.8,83.7,1.3,78.3,0.6,72.7z"/>
			<path class="st2" d="M41.2,34.8c1.1-10.4,10.4-18.5,21.7-18.5c11.8,0,21.4,8.9,21.8,19.9c0,0,0,0.1,0,0.1"/>
			<path class="st2" d="M108.3,85.9c-8,16.7-25.1,28.3-44.9,28.3c-19.9,0-37-11.6-45-28.5"/>
			<path class="st2" d="M82.6,61.2l-0.2,0.2l-8.3,8.7c-2.9,3-1.4,8,2.7,8.9l31.5,6.9"/>
			<path class="st2" d="M18.4,85.7L47.2,79c4-0.9,5.5-5.7,2.8-8.8l-1.5-1.7l-1.8-2.1L44.5,64"/>
			<line class="st2" x1="84.8" y1="36.2" x2="89" y2="54.5"/>
			<line class="st2" x1="37.8" y1="56.4" x2="41.2" y2="34.8"/>
			<polyline class="st2" points="37.5,56.5 37.7,56.7 44.4,64.1 46.7,66.5 48.5,68.5 			"/>
			<polyline class="st2" points="82.5,61.5 82.7,61.3 89.1,54.9 89.5,54.5 			"/>
		</g>
	</g>
</g>
</svg>
