<?xml version="1.0" encoding="utf-8"?>
<!-- Generator: Adobe Illustrator 21.1.0, SVG Export Plug-In . SVG Version: 6.00 Build 0)  -->
<svg version="1.1" id="Layer_1" xmlns="http://www.w3.org/2000/svg" xmlns:xlink="http://www.w3.org/1999/xlink" x="0px" y="0px"
	 viewBox="0 0 129.7 128" style="enable-background:new 0 0 129.7 128;" xml:space="preserve">
<style type="text/css">
	.st0{fill:#FFFFFF;}
</style>
<g>
	<g id="XMLID_1_">
		<g>
			<path class="st0" d="M127.6,19.4c3.6,3.7,2.5,10-2.1,12.4c-2.4,1.3-4.9,2.6-7.3,3.9c-0.3,0.1-0.7,0.3-1,0.4
				C101,44.6,84.8,53.2,68.5,61.6c-1,0.5-2.1,0.8-3.2,0.9c-0.3,0-0.6,0-0.8,0c-1.1-0.1-2.2-0.4-3.2-0.9c-8.2-4.2-16.3-8.4-24.5-12.7
				c-0.6-0.3-1.2-0.6-1.8-1c-7.5-3.9-15-7.9-22.5-11.9c-0.2-0.1-0.4-0.2-0.6-0.3c-2.5-1.3-5.1-2.7-7.6-4c-4.6-2.4-5.8-8.7-2.1-12.4
				c2.7-2.7,6-3.5,10.1-3.5c35,0.2,69.9,0.2,104.9,0c0.3,0,0.6,0,0.9,0C121.9,16,125.1,16.8,127.6,19.4z"/>
			<path class="st0" d="M117.2,36.1c0.3-0.2,0.7-0.3,1-0.4c-16.5,8.7-33,17.4-49.6,25.9c-1,0.5-2.2,0.8-3.3,0.9
				c1.1-0.1,2.2-0.4,3.2-0.9C84.8,53.2,101,44.6,117.2,36.1z"/>
			<path class="st0" d="M89.5,68.5c-2.3,1.2-4.7,2.5-7,3.7C84.8,71,87.2,69.7,89.5,68.5z"/>
			<path class="st0" d="M124.6,110.6c-2.1,1-4.6,1.4-7.4,1.4c-34.9-0.2-69.9-0.2-104.9,0c-2.8,0-5.2-0.3-7.3-1.4
				c-2.6-1.2-4.2-3.9-4.2-6.9c0-14.2,0-28.4,0-42.6c0-6,6.3-9.8,11.6-7c5.3,2.7,10.6,5.5,15.9,8.2C39.3,68,50.2,73.8,61,79.7
				c2.4,1.3,5.2,1.3,7.6,0c4.6-2.5,9.3-5,13.9-7.5c2.3-1.2,4.7-2.5,7-3.7c1.5-0.8,3-1.6,4.6-2.4c1.6-0.8,3.3-1.7,4.9-2.5
				c2-1.1,4.1-2.1,6.1-3.2c4-2.1,8.1-4.2,12.2-6.4c5.3-2.7,11.6,1.1,11.6,7v42.6C128.8,106.5,127.2,109.3,124.6,110.6z"/>
			<path class="st0" d="M61,79.7C50.2,73.8,39.3,68,28.3,62.3C39.3,68,50.2,73.8,61,79.7z"/>
			<path class="st0" d="M12.5,36.1C20,40.1,27.5,44,35,48c-7.7-4-15.4-8.1-23.1-12.1C12.1,35.9,12.3,36,12.5,36.1z"/>
		</g>
		<g>
		</g>
	</g>
</g>
</svg>
