<?xml version="1.0" encoding="utf-8"?>
<!-- Generator: Adobe Illustrator 21.1.0, SVG Export Plug-In . SVG Version: 6.00 Build 0)  -->
<svg version="1.1" id="Layer_1" xmlns="http://www.w3.org/2000/svg" xmlns:xlink="http://www.w3.org/1999/xlink" x="0px" y="0px"
	 viewBox="0 0 129 129" style="enable-background:new 0 0 129 129;" xml:space="preserve">
<style type="text/css">
	.st0{fill:none;stroke:#231F20;stroke-linecap:round;stroke-miterlimit:10;}
	.st1{fill:#FFFFFF;}
</style>
<g id="XMLID_1_">
	<circle class="st0" cx="66" cy="65.2" r="47.7"/>
	<path class="st1" d="M66,5.8c33.1,0,59.8,26.8,59.8,59.8c0,33-26.8,59.8-59.8,59.8S6.2,98.7,6.2,65.7C6.2,32.6,33,5.8,66,5.8z
		 M113.8,65.2c0-26.3-21.4-47.7-47.7-47.7S18.3,38.9,18.3,65.2s21.4,47.7,47.7,47.7S113.8,91.6,113.8,65.2z"/>
</g>
<g id="XMLID_2_">
	<g>
		<rect x="59.7" y="58" class="st1" width="13.2" height="43.8"/>
	</g>
	<g>
		<rect x="59.7" y="58" class="st0" width="13.2" height="43.8"/>
	</g>
</g>
<g id="XMLID_3_">
	<g>
		<rect x="59.5" y="32.7" class="st1" width="13.2" height="17.3"/>
	</g>
	<g>
		<rect x="59.5" y="32.7" class="st0" width="13.2" height="17.3"/>
	</g>
</g>
</svg>
