<?xml version="1.0" encoding="utf-8"?>
<!-- Generator: Adobe Illustrator 21.1.0, SVG Export Plug-In . SVG Version: 6.00 Build 0)  -->
<svg version="1.1" id="Layer_1" xmlns="http://www.w3.org/2000/svg" xmlns:xlink="http://www.w3.org/1999/xlink" x="0px" y="0px"
	 viewBox="0 0 112.2 61.2" style="enable-background:new 0 0 112.2 61.2;" xml:space="preserve">
<style type="text/css">
	.st0{fill:#FFFFFF;}
	.st1{fill:none;stroke:#000000;stroke-miterlimit:10;}
	.st2{fill:none;stroke:#000000;stroke-linecap:round;stroke-miterlimit:10;}
</style>
<g id="XMLID_1_">
	<g id="XMLID_2_">
		<g>
			<path class="st0" d="M98.8,53.2V3.6H13.9v49.6H98.8z M103.4,0.5v56.3H9.7V0.5H103.4z"/>
		</g>
		<g>
			<rect x="9.7" y="0.5" class="st1" width="93.7" height="56.3"/>
			<line class="st1" x1="98.8" y1="53.2" x2="98.8" y2="53.3"/>
			<rect x="13.9" y="3.6" class="st1" width="84.9" height="49.6"/>
		</g>
	</g>
</g>
<g id="XMLID_3_">
	<g>
		<path class="st0" d="M109.6,56.5c1.2,0,2.1,0.9,2.1,2.1c0,1.2-0.9,2.1-2.1,2.1H2.6c-1.2,0-2.1-0.9-2.1-2.1c0-0.6,0.2-1.1,0.6-1.5
			c0.4-0.4,0.9-0.6,1.5-0.6H109.6z"/>
	</g>
	<g>
		<path class="st2" d="M111.7,58.6c0,1.2-0.9,2.1-2.1,2.1H2.6c-1.2,0-2.1-0.9-2.1-2.1c0-0.6,0.2-1.1,0.6-1.5
			c0.4-0.4,0.9-0.6,1.5-0.6h107C110.8,56.5,111.7,57.4,111.7,58.6z"/>
	</g>
</g>
</svg>
